# OBJ generated by ONSHAPE BY PTC INC, 1.193 Units = meters
mtllib p2.mtl
g Part 1
v 1.55109e-17 0.015 0.03 
v 1.55109e-17 0.015 0 
v 7.01255e-18 -0.015 0 
v 7.01255e-18 -0.015 0.03 
v 0.00162179 -0.0449121 0 
v 3.51211e-19 -0.045 0 
v 3.51211e-19 -0.045 0.03 
v 0.00322456 -0.0446493 0 
v 0.00162179 -0.0449121 0.03 
v 0.00478952 -0.0442148 0 
v 0.00322456 -0.0446493 0.03 
v 0.00629834 -0.0436136 0 
v 0.00478952 -0.0442148 0.03 
v 0.00773331 -0.0428529 0 
v 0.00629834 -0.0436136 0.03 
v 0.00907761 -0.0419414 0 
v 0.00773331 -0.0428529 0.03 
v 0.0103155 -0.0408899 0 
v 0.00907761 -0.0419414 0.03 
v 0.0114324 -0.0397108 0 
v 0.0103155 -0.0408899 0.03 
v 0.0124153 -0.0384178 0 
v 0.0114324 -0.0397108 0.03 
v 0.0132527 -0.0370261 0 
v 0.0124153 -0.0384178 0.03 
v 0.0139347 -0.0355521 0 
v 0.0132527 -0.0370261 0.03 
v 0.0144532 -0.0340129 0 
v 0.0139347 -0.0355521 0.03 
v 0.0148024 -0.0324267 0 
v 0.0144532 -0.0340129 0.03 
v 0.014978 -0.0308121 0 
v 0.0148024 -0.0324267 0.03 
v 0.014978 -0.0291879 0 
v 0.014978 -0.0308121 0.03 
v 0.0148024 -0.0275733 0 
v 0.014978 -0.0291879 0.03 
v 0.0144532 -0.0259871 0 
v 0.0148024 -0.0275733 0.03 
v 0.0139347 -0.0244479 0 
v 0.0144532 -0.0259871 0.03 
v 0.0132527 -0.0229739 0 
v 0.0139347 -0.0244479 0.03 
v 0.0124153 -0.0215822 0 
v 0.0132527 -0.0229739 0.03 
v 0.0114324 -0.0202892 0 
v 0.0124153 -0.0215822 0.03 
v 0.0103155 -0.0191101 0 
v 0.0114324 -0.0202892 0.03 
v 0.00907761 -0.0180586 0 
v 0.0103155 -0.0191101 0.03 
v 0.00773331 -0.0171471 0 
v 0.00907761 -0.0180586 0.03 
v 0.00629834 -0.0163864 0 
v 0.00773331 -0.0171471 0.03 
v 0.00478952 -0.0157852 0 
v 0.00629834 -0.0163864 0.03 
v 0.00322456 -0.0153507 0 
v 0.00478952 -0.0157852 0.03 
v 0.00162179 -0.0150879 0 
v 0.00322456 -0.0153507 0.03 
v 0.00162179 -0.0150879 0.03 
v -4.47316e-18 -0.075 0 
v -4.47316e-18 -0.075 0.03 
v 0.00486536 0.0147362 0.03 
v 0.00486536 0.0147362 0 
v 0.00967367 0.0139479 0.03 
v 0.00967367 0.0139479 0 
v 0.0143686 0.0126444 0.03 
v 0.0143686 0.0126444 0 
v 0.018895 0.0108409 0.03 
v 0.018895 0.0108409 0 
v 0.0231999 0.00855857 0.03 
v 0.0231999 0.00855857 0 
v 0.0272328 0.00582419 0.03 
v 0.0272328 0.00582419 0 
v 0.0309465 0.0026698 0.03 
v 0.0309465 0.0026698 0 
v 0.0342973 -0.000867617 0.03 
v 0.0342973 -0.000867617 0 
v 0.037246 -0.00474658 0.03 
v 0.037246 -0.00474658 0 
v 0.039758 -0.00892162 0.03 
v 0.039758 -0.00892162 0 
v 0.041804 -0.0133438 0.03 
v 0.041804 -0.0133438 0 
v 0.0433597 -0.0179612 0.03 
v 0.0433597 -0.0179612 0 
v 0.0444072 -0.0227198 0.03 
v 0.0444072 -0.0227198 0 
v 0.044934 -0.0275637 0.03 
v 0.044934 -0.0275637 0 
v 0.044934 -0.0324363 0.03 
v 0.044934 -0.0324363 0 
v 0.0444072 -0.0372802 0.03 
v 0.0444072 -0.0372802 0 
v 0.0433597 -0.0420388 0.03 
v 0.0433597 -0.0420388 0 
v 0.041804 -0.0466562 0.03 
v 0.041804 -0.0466562 0 
v 0.039758 -0.0510784 0.03 
v 0.039758 -0.0510784 0 
v 0.037246 -0.0552534 0.03 
v 0.037246 -0.0552534 0 
v 0.0342973 -0.0591324 0.03 
v 0.0342973 -0.0591324 0 
v 0.0309465 -0.0626698 0.03 
v 0.0309465 -0.0626698 0 
v 0.0272328 -0.0658242 0.03 
v 0.0272328 -0.0658242 0 
v 0.0231999 -0.0685586 0.03 
v 0.0231999 -0.0685586 0 
v 0.018895 -0.0708409 0.03 
v 0.018895 -0.0708409 0 
v 0.0143686 -0.0726444 0.03 
v 0.0143686 -0.0726444 0 
v 0.00967367 -0.0739479 0.03 
v 0.00967367 -0.0739479 0 
v 0.00486536 -0.0747362 0.03 
v 0.00486536 -0.0747362 0 
vn -1 2.83277e-16 0 
vn -0.108119 0.994138 0 
vn -1.83697e-16 1 0 
vn -0.21497 0.976621 0 
vn -0.108119 0.994138 0 
vn -0.319302 0.947653 0 
vn -0.21497 0.976621 0 
vn -0.419889 0.907575 0 
vn -0.319302 0.947653 0 
vn -0.515554 0.856857 0 
vn -0.419889 0.907575 0 
vn -0.605174 0.796093 0 
vn -0.515554 0.856857 0 
vn -0.687699 0.725995 0 
vn -0.605174 0.796093 0 
vn -0.762162 0.647386 0 
vn -0.687699 0.725995 0 
vn -0.827689 0.561187 0 
vn -0.762162 0.647386 0 
vn -0.883512 0.468408 0 
vn -0.827689 0.561187 0 
vn -0.928977 0.370138 0 
vn -0.883512 0.468408 0 
vn -0.96355 0.267528 0 
vn -0.928977 0.370138 0 
vn -0.986827 0.161782 0 
vn -0.96355 0.267528 0 
vn -0.998533 0.0541389 0 
vn -0.986827 0.161782 0 
vn -0.998533 -0.0541389 0 
vn -0.998533 0.0541389 0 
vn -0.986827 -0.161782 0 
vn -0.998533 -0.0541389 0 
vn -0.96355 -0.267528 0 
vn -0.986827 -0.161782 0 
vn -0.928977 -0.370138 0 
vn -0.96355 -0.267528 0 
vn -0.883512 -0.468408 0 
vn -0.928977 -0.370138 0 
vn -0.827689 -0.561187 0 
vn -0.883512 -0.468408 0 
vn -0.762162 -0.647386 0 
vn -0.827689 -0.561187 0 
vn -0.687699 -0.725995 0 
vn -0.762162 -0.647386 0 
vn -0.605174 -0.796093 0 
vn -0.687699 -0.725995 0 
vn -0.515554 -0.856857 0 
vn -0.605174 -0.796093 0 
vn -0.419889 -0.907575 0 
vn -0.515554 -0.856857 0 
vn -0.319302 -0.947653 0 
vn -0.419889 -0.907575 0 
vn -0.21497 -0.976621 0 
vn -0.319302 -0.947653 0 
vn -0.108119 -0.994138 0 
vn -0.21497 -0.976621 0 
vn -3.82857e-16 -1 0 
vn -0.108119 -0.994138 0 
vn -1 1.60812e-16 0 
vn 3.82857e-16 1 0 
vn 0.108119 0.994138 0 
vn 0.21497 0.976621 0 
vn 0.319302 0.947653 0 
vn 0.419889 0.907575 0 
vn 0.515554 0.856857 0 
vn 0.605174 0.796093 0 
vn 0.687699 0.725995 0 
vn 0.762162 0.647386 0 
vn 0.827689 0.561187 0 
vn 0.883512 0.468408 0 
vn 0.928977 0.370138 0 
vn 0.96355 0.267528 0 
vn 0.986827 0.161782 0 
vn 0.998533 0.0541389 0 
vn 0.998533 -0.0541389 0 
vn 0.986827 -0.161782 0 
vn 0.96355 -0.267528 0 
vn 0.928977 -0.370138 0 
vn 0.883512 -0.468408 0 
vn 0.827689 -0.561187 0 
vn 0.762162 -0.647386 0 
vn 0.687699 -0.725995 0 
vn 0.605174 -0.796093 0 
vn 0.515554 -0.856857 0 
vn 0.419889 -0.907575 0 
vn 0.319302 -0.947653 0 
vn 0.21497 -0.976621 0 
vn 0.108119 -0.994138 0 
vn 1.83697e-16 -1 0 
vn 0 0 1 
vn 0 0 -1 
usemtl 0.615686_0.811765_0.929412_0.000000_0.000000
o mesh0
f 1//1 2//1 3//1 
f 3//1 4//1 1//1 
o mesh1
f 5//2 6//3 7//3 
f 8//4 5//2 9//5 
f 10//6 8//4 11//7 
f 12//8 10//6 13//9 
f 14//10 12//8 15//11 
f 16//12 14//10 17//13 
f 18//14 16//12 19//15 
f 20//16 18//14 21//17 
f 22//18 20//16 23//19 
f 24//20 22//18 25//21 
f 26//22 24//20 27//23 
f 28//24 26//22 29//25 
f 30//26 28//24 31//27 
f 32//28 30//26 33//29 
f 34//30 32//28 35//31 
f 36//32 34//30 37//33 
f 38//34 36//32 39//35 
f 40//36 38//34 41//37 
f 42//38 40//36 43//39 
f 44//40 42//38 45//41 
f 46//42 44//40 47//43 
f 48//44 46//42 49//45 
f 50//46 48//44 51//47 
f 52//48 50//46 53//49 
f 54//50 52//48 55//51 
f 56//52 54//50 57//53 
f 58//54 56//52 59//55 
f 60//56 58//54 61//57 
f 3//58 60//56 62//59 
f 62//59 4//58 3//58 
f 61//57 62//59 60//56 
f 59//55 61//57 58//54 
f 57//53 59//55 56//52 
f 55//51 57//53 54//50 
f 53//49 55//51 52//48 
f 51//47 53//49 50//46 
f 49//45 51//47 48//44 
f 47//43 49//45 46//42 
f 45//41 47//43 44//40 
f 43//39 45//41 42//38 
f 41//37 43//39 40//36 
f 39//35 41//37 38//34 
f 37//33 39//35 36//32 
f 35//31 37//33 34//30 
f 33//29 35//31 32//28 
f 31//27 33//29 30//26 
f 29//25 31//27 28//24 
f 27//23 29//25 26//22 
f 25//21 27//23 24//20 
f 23//19 25//21 22//18 
f 21//17 23//19 20//16 
f 19//15 21//17 18//14 
f 17//13 19//15 16//12 
f 15//11 17//13 14//10 
f 13//9 15//11 12//8 
f 11//7 13//9 10//6 
f 9//5 11//7 8//4 
f 7//3 9//5 5//2 
o mesh2
f 7//60 6//60 63//60 
f 63//60 64//60 7//60 
o mesh3
f 2//61 1//61 65//62 
f 66//62 65//62 67//63 
f 68//63 67//63 69//64 
f 70//64 69//64 71//65 
f 72//65 71//65 73//66 
f 74//66 73//66 75//67 
f 76//67 75//67 77//68 
f 78//68 77//68 79//69 
f 80//69 79//69 81//70 
f 82//70 81//70 83//71 
f 84//71 83//71 85//72 
f 86//72 85//72 87//73 
f 88//73 87//73 89//74 
f 90//74 89//74 91//75 
f 92//75 91//75 93//76 
f 94//76 93//76 95//77 
f 96//77 95//77 97//78 
f 98//78 97//78 99//79 
f 100//79 99//79 101//80 
f 102//80 101//80 103//81 
f 104//81 103//81 105//82 
f 106//82 105//82 107//83 
f 108//83 107//83 109//84 
f 110//84 109//84 111//85 
f 112//85 111//85 113//86 
f 114//86 113//86 115//87 
f 116//87 115//87 117//88 
f 118//88 117//88 119//89 
f 120//89 119//89 64//90 
f 64//90 63//90 120//89 
f 119//89 120//89 118//88 
f 117//88 118//88 116//87 
f 115//87 116//87 114//86 
f 113//86 114//86 112//85 
f 111//85 112//85 110//84 
f 109//84 110//84 108//83 
f 107//83 108//83 106//82 
f 105//82 106//82 104//81 
f 103//81 104//81 102//80 
f 101//80 102//80 100//79 
f 99//79 100//79 98//78 
f 97//78 98//78 96//77 
f 95//77 96//77 94//76 
f 93//76 94//76 92//75 
f 91//75 92//75 90//74 
f 89//74 90//74 88//73 
f 87//73 88//73 86//72 
f 85//72 86//72 84//71 
f 83//71 84//71 82//70 
f 81//70 82//70 80//69 
f 79//69 80//69 78//68 
f 77//68 78//68 76//67 
f 75//67 76//67 74//66 
f 73//66 74//66 72//65 
f 71//65 72//65 70//64 
f 69//64 70//64 68//63 
f 67//63 68//63 66//62 
f 65//62 66//62 2//61 
o mesh4
f 93//91 35//91 33//91 
f 93//91 91//91 37//91 
f 99//91 97//91 31//91 
f 97//91 95//91 33//91 
f 37//91 35//91 93//91 
f 91//91 89//91 39//91 
f 87//91 41//91 39//91 
f 87//91 85//91 43//91 
f 83//91 45//91 43//91 
f 83//91 81//91 47//91 
f 107//91 21//91 19//91 
f 107//91 105//91 23//91 
f 99//91 29//91 27//91 
f 33//91 31//91 97//91 
f 39//91 37//91 91//91 
f 43//91 41//91 87//91 
f 47//91 45//91 83//91 
f 79//91 49//91 47//91 
f 23//91 21//91 107//91 
f 105//91 103//91 25//91 
f 101//91 27//91 25//91 
f 31//91 29//91 99//91 
f 39//91 89//91 87//91 
f 47//91 81//91 79//91 
f 77//91 51//91 49//91 
f 77//91 75//91 53//91 
f 69//91 59//91 57//91 
f 69//91 67//91 61//91 
f 65//91 62//91 61//91 
f 65//91 1//91 4//91 
f 119//91 9//91 7//91 
f 119//91 117//91 11//91 
f 113//91 15//91 13//91 
f 113//91 111//91 17//91 
f 25//91 23//91 105//91 
f 27//91 101//91 99//91 
f 43//91 85//91 83//91 
f 53//91 51//91 77//91 
f 73//91 55//91 53//91 
f 73//91 71//91 57//91 
f 61//91 59//91 69//91 
f 4//91 62//91 65//91 
f 11//91 9//91 119//91 
f 115//91 13//91 11//91 
f 17//91 15//91 113//91 
f 111//91 109//91 19//91 
f 25//91 103//91 101//91 
f 49//91 79//91 77//91 
f 57//91 55//91 73//91 
f 61//91 67//91 65//91 
f 11//91 117//91 115//91 
f 19//91 17//91 111//91 
f 33//91 95//91 93//91 
f 57//91 71//91 69//91 
f 13//91 115//91 113//91 
f 53//91 75//91 73//91 
f 19//91 109//91 107//91 
f 7//91 64//91 119//91 
o mesh5
f 84//92 42//92 44//92 
f 84//92 86//92 40//92 
f 88//92 38//92 40//92 
f 88//92 90//92 36//92 
f 98//92 28//92 30//92 
f 100//92 26//92 28//92 
f 78//92 48//92 50//92 
f 78//92 80//92 46//92 
f 80//92 82//92 44//92 
f 40//92 42//92 84//92 
f 36//92 38//92 88//92 
f 92//92 34//92 36//92 
f 94//92 32//92 34//92 
f 94//92 96//92 30//92 
f 28//92 98//92 100//92 
f 100//92 102//92 24//92 
f 108//92 18//92 20//92 
f 108//92 110//92 16//92 
f 66//92 60//92 3//92 
f 66//92 68//92 58//92 
f 70//92 56//92 58//92 
f 70//92 72//92 54//92 
f 46//92 48//92 78//92 
f 44//92 82//92 84//92 
f 36//92 90//92 92//92 
f 30//92 32//92 94//92 
f 24//92 26//92 100//92 
f 102//92 104//92 22//92 
f 106//92 20//92 22//92 
f 16//92 18//92 108//92 
f 114//92 12//92 14//92 
f 114//92 116//92 10//92 
f 58//92 60//92 66//92 
f 54//92 56//92 70//92 
f 74//92 52//92 54//92 
f 74//92 76//92 50//92 
f 44//92 46//92 80//92 
f 34//92 92//92 94//92 
f 22//92 24//92 102//92 
f 20//92 106//92 108//92 
f 112//92 14//92 16//92 
f 10//92 12//92 114//92 
f 58//92 68//92 70//92 
f 50//92 52//92 74//92 
f 40//92 86//92 88//92 
f 22//92 104//92 106//92 
f 14//92 112//92 114//92 
f 116//92 118//92 8//92 
f 120//92 5//92 8//92 
f 120//92 63//92 6//92 
f 54//92 72//92 74//92 
f 30//92 96//92 98//92 
f 8//92 10//92 116//92 
f 6//92 5//92 120//92 
f 50//92 76//92 78//92 
f 8//92 118//92 120//92 
f 16//92 110//92 112//92 
f 3//92 2//92 66//92 
